<mxfile host="app.diagrams.net" agent="Mozilla/5.0 (Macintosh; Intel Mac OS X 10_15_7) AppleWebKit/605.1.15 (KHTML, like Gecko) Version/18.1.1 Safari/605.1.15" version="26.2.8">
  <diagram name="Page-1" id="gfqlw6HJtLKPapChI4Zx">
    <mxGraphModel dx="2201" dy="850" grid="1" gridSize="10" guides="1" tooltips="1" connect="1" arrows="1" fold="1" page="1" pageScale="1" pageWidth="827" pageHeight="1169" math="0" shadow="0">
      <root>
        <mxCell id="0" />
        <mxCell id="1" parent="0" />
        <mxCell id="ZNYywIUm3ItC9A_8JQBW-13" value="Mahasiswa" style="swimlane;childLayout=stackLayout;horizontal=1;startSize=50;horizontalStack=0;rounded=1;fontSize=14;fontStyle=0;strokeWidth=2;resizeParent=0;resizeLast=1;shadow=0;dashed=0;align=center;arcSize=0;whiteSpace=wrap;html=1;" vertex="1" parent="1">
          <mxGeometry x="320" y="350" width="160" height="150" as="geometry">
            <mxRectangle x="50" y="360" width="110" height="50" as="alternateBounds" />
          </mxGeometry>
        </mxCell>
        <mxCell id="ZNYywIUm3ItC9A_8JQBW-14" value="&lt;div style=&quot;text-align: center;&quot;&gt;&lt;span style=&quot;text-align: start;&quot;&gt;Nim (PK)&lt;/span&gt;&lt;/div&gt;&lt;div style=&quot;text-align: center;&quot;&gt;&lt;span style=&quot;text-align: start;&quot;&gt;Nama&lt;/span&gt;&lt;/div&gt;&lt;div style=&quot;text-align: center;&quot;&gt;&lt;span style=&quot;text-align: start;&quot;&gt;Program_Studi&lt;/span&gt;&lt;/div&gt;&lt;div style=&quot;text-align: center;&quot;&gt;&lt;span style=&quot;text-align: start;&quot;&gt;Angkatan&lt;/span&gt;&lt;/div&gt;&lt;div style=&quot;text-align: center;&quot;&gt;&lt;span style=&quot;text-align: start;&quot;&gt;Password&lt;/span&gt;&lt;/div&gt;" style="align=left;strokeColor=none;fillColor=none;spacingLeft=4;spacingRight=4;fontSize=12;verticalAlign=top;resizable=0;rotatable=0;part=1;html=1;whiteSpace=wrap;" vertex="1" parent="ZNYywIUm3ItC9A_8JQBW-13">
          <mxGeometry y="50" width="160" height="100" as="geometry" />
        </mxCell>
        <mxCell id="ZNYywIUm3ItC9A_8JQBW-17" value="&lt;h3 style=&quot;text-align: start;&quot; class=&quot;&quot; data-end=&quot;1066&quot; data-start=&quot;1045&quot;&gt;&lt;strong data-end=&quot;1066&quot; data-start=&quot;1052&quot;&gt;Notifikasi&lt;/strong&gt;&lt;/h3&gt;&lt;div&gt;&lt;strong data-end=&quot;1066&quot; data-start=&quot;1052&quot;&gt;&lt;br&gt;&lt;/strong&gt;&lt;/div&gt;" style="swimlane;childLayout=stackLayout;horizontal=1;startSize=50;horizontalStack=0;rounded=1;fontSize=14;fontStyle=0;strokeWidth=2;resizeParent=0;resizeLast=1;shadow=0;dashed=0;align=center;arcSize=0;whiteSpace=wrap;html=1;" vertex="1" parent="1">
          <mxGeometry x="500" y="40" width="180" height="240" as="geometry">
            <mxRectangle x="450" y="45" width="160" height="80" as="alternateBounds" />
          </mxGeometry>
        </mxCell>
        <mxCell id="ZNYywIUm3ItC9A_8JQBW-18" value="&lt;div style=&quot;text-align: center;&quot;&gt;&lt;h3 style=&quot;text-align: start;&quot; class=&quot;&quot; data-end=&quot;1066&quot; data-start=&quot;1045&quot;&gt;&lt;code style=&quot;font-weight: 400; font-size: 12px;&quot; data-end=&quot;1084&quot; data-start=&quot;1069&quot;&gt;ID_Notifikasi&lt;/code&gt;&lt;span style=&quot;font-weight: 400; font-size: 12px;&quot;&gt;&amp;nbsp;&lt;/span&gt;&lt;span style=&quot;font-weight: 400; font-size: 12px;&quot;&gt;(PK)&lt;/span&gt;&lt;br&gt;&lt;/h3&gt;&lt;h3 style=&quot;text-align: start;&quot; class=&quot;&quot; data-end=&quot;1066&quot; data-start=&quot;1045&quot;&gt;&lt;code style=&quot;font-weight: 400; font-size: 12px;&quot; data-end=&quot;1097&quot; data-start=&quot;1092&quot;&gt;NIM&lt;/code&gt;&lt;span style=&quot;font-weight: 400; font-size: 12px;&quot;&gt;&amp;nbsp;&lt;/span&gt;&lt;span style=&quot;font-weight: 400; font-size: 12px;&quot;&gt;(FK)&lt;/span&gt;&lt;/h3&gt;&lt;h3 style=&quot;text-align: start;&quot; class=&quot;&quot; data-end=&quot;1066&quot; data-start=&quot;1045&quot;&gt;&lt;span style=&quot;font-size: 12px; font-weight: 400;&quot;&gt;Isi_Pesan&lt;/span&gt;&lt;/h3&gt;&lt;h3 style=&quot;text-align: start;&quot; class=&quot;&quot; data-end=&quot;1066&quot; data-start=&quot;1045&quot;&gt;&lt;span style=&quot;font-weight: 400; font-size: 12px;&quot;&gt;Tanggal_Kirim&lt;/span&gt;&lt;/h3&gt;&lt;h3 style=&quot;text-align: start;&quot; class=&quot;&quot; data-end=&quot;1066&quot; data-start=&quot;1045&quot;&gt;&lt;code style=&quot;font-weight: 400; font-size: 12px;&quot; data-end=&quot;1150&quot; data-start=&quot;1137&quot;&gt;Status_Baca&lt;/code&gt;&lt;span style=&quot;font-weight: 400; font-size: 12px;&quot;&gt;&amp;nbsp;(Sudah/Belum)&lt;/span&gt;&lt;/h3&gt;&lt;/div&gt;" style="align=left;strokeColor=none;fillColor=none;spacingLeft=4;spacingRight=4;fontSize=12;verticalAlign=top;resizable=0;rotatable=0;part=1;html=1;whiteSpace=wrap;" vertex="1" parent="ZNYywIUm3ItC9A_8JQBW-17">
          <mxGeometry y="50" width="180" height="190" as="geometry" />
        </mxCell>
        <mxCell id="ZNYywIUm3ItC9A_8JQBW-21" value="&lt;h3 style=&quot;text-align: start;&quot; class=&quot;&quot; data-end=&quot;769&quot; data-start=&quot;749&quot;&gt;&lt;strong data-end=&quot;769&quot; data-start=&quot;756&quot;&gt;Transaksi&lt;/strong&gt;&lt;/h3&gt;" style="swimlane;childLayout=stackLayout;horizontal=1;startSize=50;horizontalStack=0;rounded=1;fontSize=14;fontStyle=0;strokeWidth=2;resizeParent=0;resizeLast=1;shadow=0;dashed=0;align=center;arcSize=0;whiteSpace=wrap;html=1;" vertex="1" parent="1">
          <mxGeometry x="43" y="600" width="180" height="340" as="geometry">
            <mxRectangle x="43" y="600" width="160" height="70" as="alternateBounds" />
          </mxGeometry>
        </mxCell>
        <mxCell id="ZNYywIUm3ItC9A_8JQBW-22" value="&lt;div style=&quot;text-align: center;&quot;&gt;&lt;h3 style=&quot;text-align: start;&quot; class=&quot;&quot; data-end=&quot;769&quot; data-start=&quot;749&quot;&gt;&lt;code style=&quot;font-size: 12px; font-weight: normal;&quot; data-end=&quot;786&quot; data-start=&quot;772&quot;&gt;ID_Transaksi&lt;/code&gt;&lt;span style=&quot;font-size: 12px; font-weight: normal;&quot;&gt;&amp;nbsp;(PK)&lt;/span&gt;&lt;br&gt;&lt;/h3&gt;&lt;h3 style=&quot;text-align: start;&quot; class=&quot;&quot; data-end=&quot;769&quot; data-start=&quot;749&quot;&gt;&lt;code style=&quot;font-size: 12px; font-weight: normal;&quot; data-end=&quot;799&quot; data-start=&quot;794&quot;&gt;NIM&lt;/code&gt;&lt;span style=&quot;font-size: 12px; font-weight: normal;&quot;&gt;&amp;nbsp;(FK)&lt;/span&gt;&lt;/h3&gt;&lt;h3 style=&quot;text-align: start;&quot; class=&quot;&quot; data-end=&quot;769&quot; data-start=&quot;749&quot;&gt;&lt;code style=&quot;font-size: 12px; font-weight: normal;&quot; data-end=&quot;816&quot; data-start=&quot;807&quot;&gt;ID_Buku&lt;/code&gt;&lt;span style=&quot;font-size: 12px; font-weight: normal;&quot;&gt;&amp;nbsp;(FK)&lt;/span&gt;&lt;/h3&gt;&lt;h3 style=&quot;text-align: start;&quot; class=&quot;&quot; data-end=&quot;769&quot; data-start=&quot;749&quot;&gt;&lt;span style=&quot;font-size: 12px; font-weight: normal;&quot;&gt;Tanggal_Pinjam&lt;/span&gt;&lt;/h3&gt;&lt;h3 style=&quot;text-align: start;&quot; class=&quot;&quot; data-end=&quot;769&quot; data-start=&quot;749&quot;&gt;&lt;span style=&quot;font-size: 12px; font-weight: normal;&quot;&gt;Tanggal_Jatuh_Tempo&lt;/span&gt;&lt;/h3&gt;&lt;h3 style=&quot;text-align: start;&quot; class=&quot;&quot; data-end=&quot;769&quot; data-start=&quot;749&quot;&gt;&lt;span style=&quot;font-size: 12px; font-weight: normal;&quot;&gt;Tanggal_Kembali&lt;/span&gt;&lt;/h3&gt;&lt;h3 style=&quot;text-align: start;&quot; class=&quot;&quot; data-end=&quot;769&quot; data-start=&quot;749&quot;&gt;&lt;code style=&quot;font-size: 12px; font-weight: normal;&quot; data-end=&quot;895&quot; data-start=&quot;887&quot;&gt;Status&lt;/code&gt;&lt;span style=&quot;font-size: 12px; font-weight: normal;&quot;&gt;&amp;nbsp;(Dipinjam/Dikembalikan)&lt;/span&gt;&lt;/h3&gt;&lt;h3 style=&quot;text-align: start;&quot; class=&quot;&quot; data-end=&quot;769&quot; data-start=&quot;749&quot;&gt;&lt;span style=&quot;font-size: 12px; font-weight: normal;&quot;&gt;Denda&lt;/span&gt;&lt;/h3&gt;&lt;/div&gt;" style="align=left;strokeColor=none;fillColor=none;spacingLeft=4;spacingRight=4;fontSize=12;verticalAlign=top;resizable=0;rotatable=0;part=1;html=1;whiteSpace=wrap;" vertex="1" parent="ZNYywIUm3ItC9A_8JQBW-21">
          <mxGeometry y="50" width="180" height="290" as="geometry" />
        </mxCell>
        <mxCell id="ZNYywIUm3ItC9A_8JQBW-24" value="&lt;h3 style=&quot;text-align: start;&quot; class=&quot;&quot; data-end=&quot;708&quot; data-start=&quot;684&quot;&gt;&lt;strong data-end=&quot;708&quot; data-start=&quot;691&quot;&gt;Kategori_Buku&lt;/strong&gt;&lt;/h3&gt;" style="swimlane;childLayout=stackLayout;horizontal=1;startSize=50;horizontalStack=0;rounded=1;fontSize=14;fontStyle=0;strokeWidth=2;resizeParent=0;resizeLast=1;shadow=0;dashed=0;align=center;arcSize=0;whiteSpace=wrap;html=1;" vertex="1" parent="1">
          <mxGeometry y="10" width="160" height="150" as="geometry">
            <mxRectangle x="43" y="55" width="160" height="70" as="alternateBounds" />
          </mxGeometry>
        </mxCell>
        <mxCell id="ZNYywIUm3ItC9A_8JQBW-25" value="&lt;div style=&quot;text-align: center;&quot;&gt;&lt;h3 style=&quot;text-align: start;&quot; class=&quot;&quot; data-end=&quot;708&quot; data-start=&quot;684&quot;&gt;&lt;code style=&quot;font-size: 12px; font-weight: normal;&quot; data-end=&quot;724&quot; data-start=&quot;711&quot;&gt;ID_Kategori&lt;/code&gt;&lt;span style=&quot;font-size: 12px; font-weight: normal;&quot;&gt;&amp;nbsp;(PK)&lt;/span&gt;&lt;br&gt;&lt;/h3&gt;&lt;h3 style=&quot;text-align: start;&quot; class=&quot;&quot; data-end=&quot;708&quot; data-start=&quot;684&quot;&gt;&lt;span style=&quot;font-size: 12px; font-weight: normal;&quot;&gt;Nama_Kategori&lt;/span&gt;&lt;/h3&gt;&lt;/div&gt;" style="align=left;strokeColor=none;fillColor=none;spacingLeft=4;spacingRight=4;fontSize=12;verticalAlign=top;resizable=0;rotatable=0;part=1;html=1;whiteSpace=wrap;" vertex="1" parent="ZNYywIUm3ItC9A_8JQBW-24">
          <mxGeometry y="50" width="160" height="100" as="geometry" />
        </mxCell>
        <mxCell id="ZNYywIUm3ItC9A_8JQBW-26" value="&lt;h3 style=&quot;text-align: start;&quot; class=&quot;&quot; data-end=&quot;953&quot; data-start=&quot;931&quot;&gt;&lt;strong data-end=&quot;953&quot; data-start=&quot;938&quot;&gt;Review_Buku&lt;/strong&gt;&lt;/h3&gt;" style="swimlane;childLayout=stackLayout;horizontal=1;startSize=50;horizontalStack=0;rounded=1;fontSize=14;fontStyle=0;strokeWidth=2;resizeParent=0;resizeLast=1;shadow=0;dashed=0;align=center;arcSize=0;whiteSpace=wrap;html=1;" vertex="1" parent="1">
          <mxGeometry x="250" y="20" width="180" height="260" as="geometry">
            <mxRectangle x="223" y="50" width="187" height="70" as="alternateBounds" />
          </mxGeometry>
        </mxCell>
        <mxCell id="ZNYywIUm3ItC9A_8JQBW-27" value="&lt;div style=&quot;text-align: center;&quot;&gt;&lt;h3 style=&quot;text-align: start;&quot; class=&quot;&quot; data-end=&quot;953&quot; data-start=&quot;931&quot;&gt;&lt;code style=&quot;font-weight: 400; font-size: 12px;&quot; data-end=&quot;967&quot; data-start=&quot;956&quot;&gt;ID_Review&lt;/code&gt;&lt;span style=&quot;font-weight: 400; font-size: 12px;&quot;&gt;&amp;nbsp;&lt;/span&gt;&lt;span style=&quot;font-weight: 400; font-size: 12px;&quot;&gt;(PK)&lt;/span&gt;&lt;br&gt;&lt;/h3&gt;&lt;h3 style=&quot;text-align: start;&quot; class=&quot;&quot; data-end=&quot;953&quot; data-start=&quot;931&quot;&gt;&lt;code style=&quot;font-weight: 400; font-size: 12px;&quot; data-end=&quot;980&quot; data-start=&quot;975&quot;&gt;NIM&lt;/code&gt;&lt;span style=&quot;font-weight: 400; font-size: 12px;&quot;&gt;&amp;nbsp;&lt;/span&gt;&lt;span style=&quot;font-weight: 400; font-size: 12px;&quot;&gt;(FK)&lt;/span&gt;&lt;/h3&gt;&lt;h3 style=&quot;text-align: start;&quot; class=&quot;&quot; data-end=&quot;953&quot; data-start=&quot;931&quot;&gt;&lt;code style=&quot;font-weight: 400; font-size: 12px;&quot; data-end=&quot;997&quot; data-start=&quot;988&quot;&gt;ID_Buku&lt;/code&gt;&lt;span style=&quot;font-weight: 400; font-size: 12px;&quot;&gt;&amp;nbsp;&lt;/span&gt;&lt;span style=&quot;font-weight: 400; font-size: 12px;&quot;&gt;(FK)&lt;/span&gt;&lt;/h3&gt;&lt;h3 style=&quot;text-align: start;&quot; class=&quot;&quot; data-end=&quot;953&quot; data-start=&quot;931&quot;&gt;&lt;span style=&quot;font-weight: 400; font-size: 12px;&quot;&gt;Rating&lt;/span&gt;&lt;/h3&gt;&lt;h3 style=&quot;text-align: start;&quot; class=&quot;&quot; data-end=&quot;953&quot; data-start=&quot;931&quot;&gt;&lt;span style=&quot;font-weight: 400; font-size: 12px;&quot;&gt;Review&lt;/span&gt;&lt;/h3&gt;&lt;h3 style=&quot;text-align: start;&quot; class=&quot;&quot; data-end=&quot;953&quot; data-start=&quot;931&quot;&gt;&lt;span style=&quot;font-weight: 400; font-size: 12px;&quot;&gt;Tanggal_Review&lt;/span&gt;&lt;/h3&gt;&lt;/div&gt;" style="align=left;strokeColor=none;fillColor=none;spacingLeft=4;spacingRight=4;fontSize=12;verticalAlign=top;resizable=0;rotatable=0;part=1;html=1;whiteSpace=wrap;" vertex="1" parent="ZNYywIUm3ItC9A_8JQBW-26">
          <mxGeometry y="50" width="180" height="210" as="geometry" />
        </mxCell>
        <mxCell id="ZNYywIUm3ItC9A_8JQBW-28" value="&lt;h3 style=&quot;text-align: start;&quot; class=&quot;&quot; data-end=&quot;953&quot; data-start=&quot;931&quot;&gt;&lt;strong data-end=&quot;953&quot; data-start=&quot;938&quot;&gt;Buku&lt;/strong&gt;&lt;/h3&gt;" style="swimlane;childLayout=stackLayout;horizontal=1;startSize=50;horizontalStack=0;rounded=1;fontSize=14;fontStyle=0;strokeWidth=2;resizeParent=0;resizeLast=1;shadow=0;dashed=0;align=center;arcSize=0;whiteSpace=wrap;html=1;" vertex="1" parent="1">
          <mxGeometry x="-10" y="230" width="180" height="290" as="geometry">
            <mxRectangle x="43" y="290" width="146" height="70" as="alternateBounds" />
          </mxGeometry>
        </mxCell>
        <mxCell id="ZNYywIUm3ItC9A_8JQBW-29" value="&lt;div style=&quot;text-align: center;&quot;&gt;&lt;h3 style=&quot;text-align: start;&quot; class=&quot;&quot; data-end=&quot;585&quot; data-start=&quot;570&quot;&gt;&lt;code style=&quot;font-size: 12px; font-weight: normal;&quot; data-end=&quot;597&quot; data-start=&quot;588&quot;&gt;ID_Buku&lt;/code&gt;&lt;span style=&quot;font-size: 12px; font-weight: normal;&quot;&gt;&amp;nbsp;&lt;/span&gt;&lt;span style=&quot;font-size: 12px; font-weight: normal;&quot;&gt;(PK)&lt;/span&gt;&lt;/h3&gt;&lt;h3 style=&quot;text-align: start;&quot; class=&quot;&quot; data-end=&quot;585&quot; data-start=&quot;570&quot;&gt;&lt;span style=&quot;font-size: 12px; font-weight: normal;&quot;&gt;Judul&lt;/span&gt;&lt;/h3&gt;&lt;h3 style=&quot;text-align: start;&quot; class=&quot;&quot; data-end=&quot;585&quot; data-start=&quot;570&quot;&gt;&lt;span style=&quot;font-size: 12px; font-weight: normal;&quot;&gt;Pengarang&lt;/span&gt;&lt;/h3&gt;&lt;h3 style=&quot;text-align: start;&quot; class=&quot;&quot; data-end=&quot;585&quot; data-start=&quot;570&quot;&gt;&lt;span style=&quot;font-size: 12px; font-weight: normal;&quot;&gt;Tahun_Terbit&lt;/span&gt;&lt;/h3&gt;&lt;h3 style=&quot;text-align: start;&quot; class=&quot;&quot; data-end=&quot;585&quot; data-start=&quot;570&quot;&gt;&lt;span style=&quot;font-size: 12px; font-weight: normal;&quot;&gt;Stok&lt;/span&gt;&lt;/h3&gt;&lt;h3 style=&quot;text-align: start;&quot; class=&quot;&quot; data-end=&quot;585&quot; data-start=&quot;570&quot;&gt;&lt;span style=&quot;font-size: 12px; font-weight: normal;&quot;&gt;ISBN&lt;/span&gt;&lt;/h3&gt;&lt;h3 style=&quot;text-align: start;&quot; class=&quot;&quot; data-end=&quot;585&quot; data-start=&quot;570&quot;&gt;&lt;code style=&quot;font-size: 12px; font-weight: normal;&quot; data-end=&quot;677&quot; data-start=&quot;664&quot;&gt;ID_Kategori&lt;/code&gt;&lt;span style=&quot;font-size: 12px; font-weight: normal;&quot;&gt;&amp;nbsp;(FK)&lt;/span&gt;&lt;/h3&gt;&lt;/div&gt;" style="align=left;strokeColor=none;fillColor=none;spacingLeft=4;spacingRight=4;fontSize=12;verticalAlign=top;resizable=0;rotatable=0;part=1;html=1;whiteSpace=wrap;" vertex="1" parent="ZNYywIUm3ItC9A_8JQBW-28">
          <mxGeometry y="50" width="180" height="240" as="geometry" />
        </mxCell>
        <mxCell id="ZNYywIUm3ItC9A_8JQBW-30" value="&lt;h3 style=&quot;text-align: start;&quot; class=&quot;&quot; data-end=&quot;499&quot; data-start=&quot;478&quot;&gt;&lt;strong data-end=&quot;499&quot; data-start=&quot;485&quot;&gt;Pustakawan&lt;/strong&gt;&lt;/h3&gt;" style="swimlane;childLayout=stackLayout;horizontal=1;startSize=50;horizontalStack=0;rounded=1;fontSize=14;fontStyle=0;strokeWidth=2;resizeParent=0;resizeLast=1;shadow=0;dashed=0;align=center;arcSize=0;whiteSpace=wrap;html=1;" vertex="1" parent="1">
          <mxGeometry x="570" y="520" width="230" height="180" as="geometry">
            <mxRectangle x="570" y="520" width="140" height="70" as="alternateBounds" />
          </mxGeometry>
        </mxCell>
        <mxCell id="ZNYywIUm3ItC9A_8JQBW-31" value="&lt;div style=&quot;text-align: center;&quot;&gt;&lt;h3 style=&quot;text-align: start;&quot; class=&quot;&quot; data-end=&quot;499&quot; data-start=&quot;478&quot;&gt;&lt;code style=&quot;font-size: 12px; font-weight: normal;&quot; data-end=&quot;517&quot; data-start=&quot;502&quot;&gt;ID_Pustakawan&lt;/code&gt;&lt;span style=&quot;font-size: 12px; font-weight: normal;&quot;&gt;&amp;nbsp;(PK)&lt;/span&gt;&lt;br&gt;&lt;/h3&gt;&lt;h3 style=&quot;text-align: start;&quot; class=&quot;&quot; data-end=&quot;499&quot; data-start=&quot;478&quot;&gt;&lt;span style=&quot;font-size: 12px; font-weight: normal;&quot;&gt;Nama_Pustakawan&lt;/span&gt;&lt;/h3&gt;&lt;h3 style=&quot;text-align: start;&quot; class=&quot;&quot; data-end=&quot;499&quot; data-start=&quot;478&quot;&gt;&lt;span style=&quot;font-size: 12px; font-weight: normal;&quot;&gt;Username&lt;/span&gt;&lt;/h3&gt;&lt;h3 style=&quot;text-align: start;&quot; class=&quot;&quot; data-end=&quot;499&quot; data-start=&quot;478&quot;&gt;&lt;span style=&quot;font-size: 12px; font-weight: normal;&quot;&gt;Password&lt;/span&gt;&lt;/h3&gt;&lt;/div&gt;" style="align=left;strokeColor=none;fillColor=none;spacingLeft=4;spacingRight=4;fontSize=12;verticalAlign=top;resizable=0;rotatable=0;part=1;html=1;whiteSpace=wrap;" vertex="1" parent="ZNYywIUm3ItC9A_8JQBW-30">
          <mxGeometry y="50" width="230" height="130" as="geometry" />
        </mxCell>
        <mxCell id="ZNYywIUm3ItC9A_8JQBW-33" value="&lt;h3 style=&quot;text-align: start;&quot; class=&quot;&quot; data-end=&quot;1184&quot; data-start=&quot;1166&quot;&gt;&lt;strong data-end=&quot;1184&quot; data-start=&quot;1173&quot;&gt;Laporan&lt;/strong&gt;&lt;/h3&gt;" style="swimlane;childLayout=stackLayout;horizontal=1;startSize=50;horizontalStack=0;rounded=1;fontSize=14;fontStyle=0;strokeWidth=2;resizeParent=0;resizeLast=1;shadow=0;dashed=0;align=center;arcSize=0;whiteSpace=wrap;html=1;" vertex="1" parent="1">
          <mxGeometry x="562.5" y="760" width="245" height="205" as="geometry">
            <mxRectangle x="607.5" y="750" width="155" height="70" as="alternateBounds" />
          </mxGeometry>
        </mxCell>
        <mxCell id="ZNYywIUm3ItC9A_8JQBW-34" value="&lt;div style=&quot;text-align: center;&quot;&gt;&lt;h3 style=&quot;text-align: start;&quot; class=&quot;&quot; data-end=&quot;1184&quot; data-start=&quot;1166&quot;&gt;&lt;code style=&quot;font-weight: 400; font-size: 12px;&quot; data-end=&quot;1199&quot; data-start=&quot;1187&quot;&gt;ID_Laporan&lt;/code&gt;&lt;span style=&quot;font-weight: 400; font-size: 12px;&quot;&gt;&amp;nbsp;&lt;/span&gt;&lt;span style=&quot;font-weight: 400; font-size: 12px;&quot;&gt;(PK)&lt;/span&gt;&lt;br&gt;&lt;/h3&gt;&lt;h3 style=&quot;text-align: start;&quot; class=&quot;&quot; data-end=&quot;1184&quot; data-start=&quot;1166&quot;&gt;&lt;span style=&quot;font-weight: 400; font-size: 12px;&quot;&gt;Tanggal_Laporan&lt;/span&gt;&lt;/h3&gt;&lt;h3 style=&quot;text-align: start;&quot; class=&quot;&quot; data-end=&quot;1184&quot; data-start=&quot;1166&quot;&gt;&lt;code style=&quot;font-weight: 400; font-size: 12px;&quot; data-end=&quot;1242&quot; data-start=&quot;1227&quot;&gt;Jenis_Laporan&lt;/code&gt;&lt;span style=&quot;font-weight: 400; font-size: 12px;&quot;&gt;&amp;nbsp;&lt;/span&gt;&lt;span style=&quot;font-weight: 400; font-size: 12px;&quot;&gt;(Harian/Mingguan/Bulanan)&lt;/span&gt;&lt;/h3&gt;&lt;h3 style=&quot;text-align: start;&quot; class=&quot;&quot; data-end=&quot;1184&quot; data-start=&quot;1166&quot;&gt;&lt;span style=&quot;font-weight: 400; font-size: 12px;&quot;&gt;Isi_Laporan&lt;/span&gt;&lt;/h3&gt;&lt;/div&gt;" style="align=left;strokeColor=none;fillColor=none;spacingLeft=4;spacingRight=4;fontSize=12;verticalAlign=top;resizable=0;rotatable=0;part=1;html=1;whiteSpace=wrap;" vertex="1" parent="ZNYywIUm3ItC9A_8JQBW-33">
          <mxGeometry y="50" width="245" height="155" as="geometry" />
        </mxCell>
        <mxCell id="ZNYywIUm3ItC9A_8JQBW-42" value="" style="edgeStyle=orthogonalEdgeStyle;fontSize=12;html=1;endArrow=ERzeroToMany;endFill=1;rounded=0;exitX=0.25;exitY=1;exitDx=0;exitDy=0;entryX=0.985;entryY=0.172;entryDx=0;entryDy=0;entryPerimeter=0;" edge="1" parent="1" source="ZNYywIUm3ItC9A_8JQBW-14" target="ZNYywIUm3ItC9A_8JQBW-22">
          <mxGeometry width="100" height="100" relative="1" as="geometry">
            <mxPoint x="485.29" y="610" as="sourcePoint" />
            <mxPoint x="260.03000000000026" y="731.3199999999999" as="targetPoint" />
            <Array as="points">
              <mxPoint x="360" y="700" />
            </Array>
          </mxGeometry>
        </mxCell>
        <mxCell id="ZNYywIUm3ItC9A_8JQBW-44" value="" style="fontSize=12;html=1;endArrow=ERzeroToMany;endFill=1;rounded=0;entryX=0.5;entryY=1;entryDx=0;entryDy=0;exitX=1;exitY=0.25;exitDx=0;exitDy=0;edgeStyle=orthogonalEdgeStyle;" edge="1" parent="1" source="ZNYywIUm3ItC9A_8JQBW-29" target="ZNYywIUm3ItC9A_8JQBW-26">
          <mxGeometry width="100" height="100" relative="1" as="geometry">
            <mxPoint x="98" y="240" as="sourcePoint" />
            <mxPoint x="100" y="125" as="targetPoint" />
          </mxGeometry>
        </mxCell>
        <mxCell id="ZNYywIUm3ItC9A_8JQBW-45" value="" style="fontSize=12;html=1;endArrow=ERzeroToMany;endFill=1;rounded=0;entryX=0.827;entryY=0.995;entryDx=0;entryDy=0;exitX=0.5;exitY=0;exitDx=0;exitDy=0;entryPerimeter=0;" edge="1" parent="1" source="ZNYywIUm3ItC9A_8JQBW-13" target="ZNYywIUm3ItC9A_8JQBW-27">
          <mxGeometry width="100" height="100" relative="1" as="geometry">
            <mxPoint x="188" y="240" as="sourcePoint" />
            <mxPoint x="327" y="130" as="targetPoint" />
          </mxGeometry>
        </mxCell>
        <mxCell id="ZNYywIUm3ItC9A_8JQBW-47" value="" style="fontSize=12;html=1;endArrow=ERzeroToMany;endFill=1;rounded=0;edgeStyle=orthogonalEdgeStyle;entryX=0.25;entryY=1;entryDx=0;entryDy=0;exitX=1;exitY=0.5;exitDx=0;exitDy=0;" edge="1" parent="1" source="ZNYywIUm3ItC9A_8JQBW-13" target="ZNYywIUm3ItC9A_8JQBW-17">
          <mxGeometry width="100" height="100" relative="1" as="geometry">
            <mxPoint x="470" y="340" as="sourcePoint" />
            <mxPoint x="490" y="130" as="targetPoint" />
          </mxGeometry>
        </mxCell>
        <mxCell id="ZNYywIUm3ItC9A_8JQBW-55" value="" style="fontSize=12;html=1;endArrow=ERoneToMany;startArrow=ERzeroToOne;rounded=0;entryX=1;entryY=0.5;entryDx=0;entryDy=0;exitX=0;exitY=0.5;exitDx=0;exitDy=0;edgeStyle=orthogonalEdgeStyle;" edge="1" parent="1" source="ZNYywIUm3ItC9A_8JQBW-31" target="ZNYywIUm3ItC9A_8JQBW-22">
          <mxGeometry width="100" height="100" relative="1" as="geometry">
            <mxPoint x="612.5" y="730" as="sourcePoint" />
            <mxPoint x="270" y="894.3699999999999" as="targetPoint" />
          </mxGeometry>
        </mxCell>
        <mxCell id="ZNYywIUm3ItC9A_8JQBW-56" value="" style="fontSize=12;html=1;endArrow=ERzeroToMany;startArrow=ERmandOne;rounded=0;exitX=0.25;exitY=0;exitDx=0;exitDy=0;entryX=0.25;entryY=1;entryDx=0;entryDy=0;" edge="1" parent="1" source="ZNYywIUm3ItC9A_8JQBW-28" target="ZNYywIUm3ItC9A_8JQBW-25">
          <mxGeometry width="100" height="100" relative="1" as="geometry">
            <mxPoint x="90" y="200" as="sourcePoint" />
            <mxPoint x="190" y="100" as="targetPoint" />
          </mxGeometry>
        </mxCell>
        <mxCell id="ZNYywIUm3ItC9A_8JQBW-57" value="" style="edgeStyle=orthogonalEdgeStyle;fontSize=12;html=1;endArrow=ERzeroToMany;endFill=1;rounded=0;entryX=1;entryY=0.25;entryDx=0;entryDy=0;exitX=1;exitY=0.75;exitDx=0;exitDy=0;" edge="1" parent="1" source="ZNYywIUm3ItC9A_8JQBW-29" target="ZNYywIUm3ItC9A_8JQBW-21">
          <mxGeometry width="100" height="100" relative="1" as="geometry">
            <mxPoint x="410" y="510" as="sourcePoint" />
            <mxPoint x="213" y="663" as="targetPoint" />
            <Array as="points">
              <mxPoint x="270" y="460" />
              <mxPoint x="270" y="685" />
            </Array>
          </mxGeometry>
        </mxCell>
        <mxCell id="ZNYywIUm3ItC9A_8JQBW-58" value="" style="edgeStyle=orthogonalEdgeStyle;fontSize=12;html=1;endArrow=ERone;endFill=1;rounded=0;exitX=0.985;exitY=0.699;exitDx=0;exitDy=0;exitPerimeter=0;entryX=0;entryY=0.25;entryDx=0;entryDy=0;" edge="1" parent="1" source="ZNYywIUm3ItC9A_8JQBW-22" target="ZNYywIUm3ItC9A_8JQBW-34">
          <mxGeometry width="100" height="100" relative="1" as="geometry">
            <mxPoint x="270" y="870" as="sourcePoint" />
            <mxPoint x="370" y="770" as="targetPoint" />
          </mxGeometry>
        </mxCell>
        <mxCell id="ZNYywIUm3ItC9A_8JQBW-59" value="1 TO MANY" style="text;strokeColor=none;align=center;fillColor=none;html=1;verticalAlign=middle;whiteSpace=wrap;rounded=0;" vertex="1" parent="1">
          <mxGeometry x="60" y="180" width="60" height="30" as="geometry" />
        </mxCell>
        <mxCell id="ZNYywIUm3ItC9A_8JQBW-60" value="1 TO MANY" style="text;strokeColor=none;align=center;fillColor=none;html=1;verticalAlign=middle;whiteSpace=wrap;rounded=0;" vertex="1" parent="1">
          <mxGeometry x="420" y="600" width="60" height="30" as="geometry" />
        </mxCell>
        <mxCell id="ZNYywIUm3ItC9A_8JQBW-61" value="1 TO MANY" style="text;strokeColor=none;align=center;fillColor=none;html=1;verticalAlign=middle;whiteSpace=wrap;rounded=0;" vertex="1" parent="1">
          <mxGeometry x="210" y="510" width="60" height="30" as="geometry" />
        </mxCell>
        <mxCell id="ZNYywIUm3ItC9A_8JQBW-62" value="1 TO MANY" style="text;strokeColor=none;align=center;fillColor=none;html=1;verticalAlign=middle;whiteSpace=wrap;rounded=0;" vertex="1" parent="1">
          <mxGeometry x="300" y="568" width="60" height="30" as="geometry" />
        </mxCell>
        <mxCell id="ZNYywIUm3ItC9A_8JQBW-63" value="1 TO 1" style="text;strokeColor=none;align=center;fillColor=none;html=1;verticalAlign=middle;whiteSpace=wrap;rounded=0;" vertex="1" parent="1">
          <mxGeometry x="360" y="860" width="60" height="30" as="geometry" />
        </mxCell>
        <mxCell id="ZNYywIUm3ItC9A_8JQBW-64" value="1 TO MANY" style="text;strokeColor=none;align=center;fillColor=none;html=1;verticalAlign=middle;whiteSpace=wrap;rounded=0;" vertex="1" parent="1">
          <mxGeometry x="540" y="330" width="60" height="30" as="geometry" />
        </mxCell>
        <mxCell id="ZNYywIUm3ItC9A_8JQBW-65" value="1 TO MANY" style="text;strokeColor=none;align=center;fillColor=none;html=1;verticalAlign=middle;whiteSpace=wrap;rounded=0;" vertex="1" parent="1">
          <mxGeometry x="340" y="300" width="60" height="30" as="geometry" />
        </mxCell>
        <mxCell id="ZNYywIUm3ItC9A_8JQBW-66" value="1 TO MANY" style="text;strokeColor=none;align=center;fillColor=none;html=1;verticalAlign=middle;whiteSpace=wrap;rounded=0;" vertex="1" parent="1">
          <mxGeometry x="240" y="300" width="60" height="30" as="geometry" />
        </mxCell>
      </root>
    </mxGraphModel>
  </diagram>
</mxfile>
